<?xml version="1.0" standalone="no"?>
<!DOCTYPE svg PUBLIC "-//W3C//DTD SVG 1.1//EN" "http://www.w3.org/Graphics/SVG/1.1/DTD/svg11.dtd">
<svg xmlns="http://www.w3.org/2000/svg">
<metadata>Copyright (C) 2020 by original authors @ fontello.com</metadata>
<defs>
<font id="fontello" horiz-adv-x="1000" >
<font-face font-family="fontello" font-weight="400" font-stretch="normal" units-per-em="1000" ascent="850" descent="-150" />
<missing-glyph horiz-adv-x="1000" />
<glyph glyph-name="down-open" unicode="&#xe800;" d="M939 399l-414-413q-10-11-25-11t-25 11l-414 413q-11 11-11 26t11 25l93 92q10 11 25 11t25-11l296-296 296 296q11 11 25 11t26-11l92-92q11-11 11-25t-11-26z" horiz-adv-x="1000" />

<glyph glyph-name="left-open" unicode="&#xe801;" d="M654 682l-297-296 297-297q10-10 10-25t-10-25l-93-93q-11-10-25-10t-25 10l-414 415q-11 10-11 25t11 25l414 414q10 11 25 11t25-11l93-93q10-10 10-25t-10-25z" horiz-adv-x="714.3" />

<glyph glyph-name="right-open" unicode="&#xe802;" d="M618 361l-414-415q-11-10-25-10t-25 10l-93 93q-11 11-11 25t11 25l296 297-296 296q-11 11-11 25t11 25l93 93q10 11 25 11t25-11l414-414q10-11 10-25t-10-25z" horiz-adv-x="714.3" />

<glyph glyph-name="heart" unicode="&#xe803;" d="M500-79q-14 0-25 10l-348 336q-5 5-15 15t-31 37-38 54-30 67-13 77q0 123 71 192t196 70q34 0 70-12t67-33 54-38 42-38q20 20 42 38t54 38 67 33 70 12q125 0 196-70t71-192q0-123-128-251l-347-335q-10-10-25-10z" horiz-adv-x="1000" />

<glyph glyph-name="minus" unicode="&#xe804;" d="M786 439v-107q0-22-16-38t-38-15h-678q-23 0-38 15t-16 38v107q0 23 16 38t38 16h678q23 0 38-16t16-38z" horiz-adv-x="785.7" />

<glyph glyph-name="statistics" unicode="&#xe805;" d="M797 577l-91-85q-57-53-113-106c-17-15-29-15-46 0-21 19-42 39-63 59-23-16-45-33-67-49q-111-83-222-166a26 26 0 0 0-37 4c-8 11-6 24 7 34q119 90 238 180 30 23 61 46c16 12 27 11 41-2 22-20 43-40 65-60l190 178c-25 0-46-1-68 0-18 0-30 16-23 32a23 23 0 0 0 22 15c44 0 88 0 131 0 17 0 25-10 25-26q1-58 0-116c0-15-10-26-24-26-16-1-26 9-26 26 0 20 0 39 0 62z m53-397c0-48-1-95 1-142 1-46-34-75-73-73-21 1-42 0-63 0-38 0-68 27-69 66q-1 150 0 300c1 33 29 62 62 63 27 1 54 1 81 0 32-1 60-28 61-60 1-52 0-103 0-154z m-157 0c0-48 0-96 0-144 0-17 8-25 25-25 20-1 41-1 62 0 16 0 25 8 25 24q0 145 0 289c0 17-8 25-25 25-20 0-40 0-61 0-20 0-26-7-26-27q-1-71 0-142z m-74-58c0-31 0-62 0-93-1-37-28-64-65-64h-76c-35 0-63 27-63 62-1 65-1 129 0 194 0 31 28 59 60 59 27 1 55 1 82 0 33 0 60-27 61-60 0-2 0-3 0-4z m-46 0c0 30 0 61 0 92 0 13-6 21-18 21-25 0-51 0-76 0-12 0-18-7-18-19q-1-93 0-186c0-13 7-20 21-20 23 0 46 0 69 0 16 0 22 7 22 23 0 30 0 59 0 89z m-288-157h-42c-32 0-59 25-60 57q-1 46 0 91a59 59 0 0 0 59 57q43 0 86 0a59 59 0 0 0 59-57c1-30 1-61 0-91-1-32-28-57-60-57z m1 159c-13 0-27 0-40 0-10 1-17-4-17-13q-1-43 0-86c0-10 6-15 17-15 26 1 52 1 78 0 10 0 16 5 17 14q1 43 0 86c0 9-6 15-17 14-13 0-25 0-38 0z" horiz-adv-x="1000" />

<glyph glyph-name="ok" unicode="&#xe806;" d="M933 534q0-22-16-38l-404-404-76-76q-16-15-38-15t-38 15l-76 76-202 202q-15 16-15 38t15 38l76 76q16 16 38 16t38-16l164-165 366 367q16 16 38 16t38-16l76-76q16-15 16-38z" horiz-adv-x="1000" />

<glyph glyph-name="borderspoon" unicode="&#xe807;" d="M79 813a208 208 0 0 1-64-100c-6-21-10-43-15-64v-58a11 11 0 0 0 2-2 158 158 0 0 1 91-111 18 18 0 0 0 8-14c-2-47-5-94-7-140-4-63-8-126-11-189s-8-126-10-189a98 98 0 0 1 105-96 98 98 0 0 1 106 95c-1 27-2 55-4 82q-12 218-24 435c0 9 3 14 13 19a153 153 0 0 1 82 94 192 192 0 0 1 2 89 237 237 0 0 1-70 144 150 150 0 0 1-204 5z m172-55a207 207 0 0 0 42-103c2-11 3-23 4-34a105 105 0 0 0-79-103c-20-7-26-13-25-33 4-65 8-131 11-197q6-92 10-184c3-49 6-97 9-145 0-5 1-9 1-13a43 43 0 0 0-46-43 43 43 0 0 0-45 44c2 34 4 68 6 102 3 62 8 124 11 187q7 124 13 248c1 21-4 27-27 35a104 104 0 0 0-75 107 250 250 0 0 0 33 116 117 117 0 0 0 52 48 87 87 0 0 0 105-32z" horiz-adv-x="357" />

<glyph glyph-name="claenderstatus" unicode="&#xe808;" d="M627 692h-254a14 14 0 0 1-14-15v-2a14 14 0 0 1 14-14h254a14 14 0 0 1 15 14v2a14 14 0 0 1-15 15z m-160-563a22 22 0 0 1-22-22v-100a55 55 0 0 0-24-53v120a22 22 0 0 1-44 0v-120a55 55 0 0 0-24 53v100a22 22 0 0 1-44 0v-100a92 92 0 0 1 68-100v-25h44v25a92 92 0 0 1 68 100v100a22 22 0 0 1-22 22z m148 10a76 76 0 0 1-64-48 183 183 0 0 1-20-84 86 86 0 0 1 61-91v-34h45v34a86 86 0 0 1 61 91 183 183 0 0 1-20 84 76 76 0 0 1-63 48z m0-181c-33 0-40 27-40 49 0 45 25 87 40 87s39-42 39-87c0-22-7-49-39-49z m221 440h-672a47 47 0 0 1-47-47v-386a83 83 0 0 1 81-83h102a243 243 0 0 0-45 141 245 245 0 1 0 490-3 243 243 0 0 0-44-138h99a83 83 0 0 1 83 83v386a47 47 0 0 1-47 47z m-681 64h690a18 18 0 0 1 15 30l-57 51v207a69 69 0 0 1-69 68h-468a69 69 0 0 1-68-68v-207l-56-49a18 18 0 0 1-5-8 18 18 0 0 1 18-24z m145 215a73 73 0 0 0 73 73h254a73 73 0 0 0 73-73v-2a73 73 0 0 0-73-73h-254a73 73 0 0 0-73 73z" horiz-adv-x="1000" />

<glyph glyph-name="close" unicode="&#xe809;" d="M219 131l219 219-219 219 62 62 219-218 219 218 62-62-218-219 218-219-62-62-219 219-219-219z" horiz-adv-x="1000" />

<glyph glyph-name="member" unicode="&#xe80a;" d="M265 110c4 11 7 23 13 33 22 44 58 71 111 72a36 36 0 0 1 29 15c10 12 9 18-4 27-39 27-61 63-70 107a56 56 0 0 0-1 13c0 11 8 17 19 19 10 2 16-5 20-13a87 87 0 0 0 4-17c11-52 60-92 114-92 54 0 104 40 113 94 4 28 3 57 3 85 0 2-3 6-6 8-16 13-33 25-51 39-10-10-23-22-37-33a293 293 0 0 0-166-62c-14-1-24 6-25 18-2 13 7 24 21 25 82 4 145 41 194 102 14 17 30 16 40-5 12-28 34-45 66-55 2 51 5 101-38 141-22 20-48 31-79 31-28 0-56 2-83-1-52-6-93-45-101-94-4-25-2-51-3-77 0-19-8-29-21-29-13 1-21 11-21 29 1 33-3 66 7 98 20 61 60 103 129 114 30 5 62 2 92 3a144 144 0 0 0 72-18c50-26 79-67 85-119 5-44 3-90 3-135 0-17-15-23-36-16 1-35-2-69-19-100s-41-56-74-71c6-6 11-13 17-17 9-6 18-13 27-13 67-1 115-52 122-105 4-30 3-62 3-93 0-11-9-19-20-19s-20 6-21 18c-1 21 0 41-1 62 0 12-1 24-4 35-10 34-38 55-76 59-11 1-22 2-34 4 13-27-9-37-29-46-48-25-107-11-140 33-6 8-11 10-21 9-47-4-81-37-82-84 0-23 0-46 0-70-1-14-13-24-26-20-6 2-10 8-15 12z m204 124c-9-13-15-25-23-36-5-6-5-9 0-14 26-26 65-30 97-9 6 5 14 8 21 12-13 14-32 26-21 47z" horiz-adv-x="1000" />

<glyph glyph-name="homepageclose" unicode="&#xe80c;" d="M180 850l-180-180 92-91 226-231-226-227-92-87 180-184 91 92 231 230 227-230 88-92 183 184-92 87-230 227 230 231 92 91-183 180-88-92-227-226-231 226-91 92z" horiz-adv-x="1000" />

<glyph glyph-name="new" unicode="&#xe811;" d="M417-67v334h-334a83 83 0 1 0 0 166h334v334a83 83 0 1 0 166 0v-334h334a83 83 0 1 0 0-166h-334v-334a83 83 0 1 0-166 0z" horiz-adv-x="1000" />

<glyph glyph-name="minus-1" unicode="&#xe814;" d="M729 455q44 0 74-32t31-73-31-74-74-30l-625 0q-44 0-74 30t-30 74q0 43 31 74t73 31l625 0z" horiz-adv-x="834" />

<glyph glyph-name="search" unicode="&#xe815;" d="M994-56l-206 206a428 428 0 0 1 87 263 435 435 0 0 1-437 437 435 435 0 0 1-438-437 435 435 0 0 1 438-438 428 428 0 0 1 262 88l206-207z m-869 469a309 309 0 0 0 313 312 309 309 0 0 0 312-312 309 309 0 0 0-312-313 309 309 0 0 0-313 313z" horiz-adv-x="1000" />

<glyph glyph-name="plus" unicode="&#xe816;" d="M729 454q44 0 74-31t31-73-31-73-74-30l-208 3 0-212q0-43-30-73t-75-31-73 31-30 73l3 212-212-3q-44 0-74 30t-30 73 30 73 74 31l212 0-3 209q0 42 30 73t73 31 75-31 30-73l0-209 208 0z" horiz-adv-x="834" />

<glyph glyph-name="service" unicode="&#xe817;" d="M959 307a137 137 0 0 1-120 141 81 81 0 0 1-57 55 290 290 0 0 1-282 261 290 290 0 0 1-282-261 81 81 0 0 1-57-55q-3 0-7-1v175a27 27 0 1 1-53 0v-196a145 145 0 0 1-60-119 137 137 0 0 1 120-141 81 81 0 0 1 56-55 142 142 0 0 1 140-117h6a84 84 0 0 1 80-58h114a84 84 0 0 1 0 168h-114a84 84 0 0 1-80-57h-6a88 88 0 0 0-85 66 81 81 0 0 1 54 76v236a81 81 0 0 1-54 77 236 236 0 0 0 228 208 236 236 0 0 0 229-208 81 81 0 0 1-55-77v-236a81 81 0 0 1 80-81h8a81 81 0 0 1 77 58 137 137 0 0 1 120 141z m-516-256h114a30 30 0 0 0 0-61h-114a30 30 0 0 0 0 61z m-348 256a86 86 0 0 0 63 87v-173a86 86 0 0 0-63 86z m178-118a27 27 0 0 0-27-27h-8a27 27 0 0 0-26 27v236a27 27 0 0 0 26 27h8a27 27 0 0 0 27-27z m515 0a27 27 0 0 0-26-27h-8a27 27 0 0 0-26 27v236a27 27 0 0 0 26 27h8a27 27 0 0 0 26-27z m54 32v173a91 91 0 0 0 0-173z" horiz-adv-x="1000" />

<glyph glyph-name="spoon" unicode="&#xe818;" d="M351 575a154 154 0 0 0-83-94c-9-5-13-10-12-19 8-145 16-290 24-434 2-28 3-55 3-83a98 98 0 0 0-105-95 98 98 0 0 0-105 96c2 63 6 126 9 190s8 125 11 188c3 46 6 93 8 140a17 17 0 0 1-8 14 157 157 0 0 0-91 111c-1 1-2 1-2 2v58c5 21 8 43 15 64a209 209 0 0 0 64 100 149 149 0 0 0 204-6 238 238 0 0 0 70-142 192 192 0 0 0-2-90z" horiz-adv-x="357" />

<glyph glyph-name="trash" unicode="&#xe81b;" d="M734 725h-171v31a94 94 0 0 1-94 94h-125a94 94 0 0 1-94-94v-31h-172a78 78 0 0 1-78-78v-63a31 31 0 0 1 31-31h750a31 31 0 0 1 32 31v63a78 78 0 0 1-79 78z m-422 31a31 31 0 0 0 32 32h125a31 31 0 0 0 31-32v-31h-187z m-253-265a10 10 0 0 1-9-11l25-541a94 94 0 0 1 94-89h475a94 94 0 0 1 93 89l26 541a10 10 0 0 1-10 11z m472-78a31 31 0 0 0 63 0v-407a31 31 0 0 0-63 0z m-156 0a31 31 0 0 0 62 0v-407a31 31 0 0 0-62 0z m-156 0a31 31 0 0 0 62 0v-407a31 31 0 0 0-62 0z" horiz-adv-x="812" />

<glyph glyph-name="vote" unicode="&#xe81d;" d="M490-30c-21 0-42 1-62 0-12-1-20 4-28 12q-186 187-373 373c-36 36-36 77 0 113q177 177 355 355c36 36 77 36 113 0q203-203 407-407c36-36 36-77 0-113q-161-162-323-323a39 39 0 0 0-23-9c-22-2-44-1-66-1z m-196 560c6-10 10-19 16-26 33-34 67-68 101-101 19-19 36-19 55 0q51 50 101 101c17 18 17 36 0 54q-50 51-101 101c-18 18-36 18-55 0q-51-50-100-101c-7-7-11-17-17-28z m-3-243c19 0 37 0 56 0 26 0 41 13 41 36s-14 36-40 37c-13 1-25 0-38 0-28 0-38 9-43 37-3 21-16 32-38 31-20-1-33-14-33-36q-1-35 0-70c0-22 14-35 36-35 20-1 39 0 59 0z m444-11c-1 3-3 11-8 17-36 37-73 74-111 110-14 14-33 12-47-2s-17-34-3-49c36-37 73-73 110-109a31 31 0 0 1 37-6c13 7 22 17 22 39z m-343-72c-23-1-34-10-40-25-6-14-2-27 9-38q51-50 101-101c18-18 38-19 54-3s16 36-1 53q-50 51-101 101c-7 7-17 10-22 13z m71-354q-182 0-363 0c-20 0-32 8-38 24-5 15-1 33 12 41a63 63 0 0 0 32 9c130 1 261 0 392 0q165 0 330 0c18 0 31-7 38-23 6-15 4-30-8-40a55 55 0 0 0-31-11c-122 0-243 0-364 0z m-25 632l-49 49 50 48 48-48z" horiz-adv-x="929" />

<glyph glyph-name="photo-1" unicode="&#xe821;" d="M1102-150h-1010c-78 23-93 70-92 134 2 189 1 378 1 568a134 134 0 0 0 3 35c14 52 55 79 118 79q473 0 946 0a209 209 0 0 0 33-3 102 102 0 0 0 87-102q0-303 0-606a95 95 0 0 0-40-81c-13-10-30-16-46-24z m-507 152a257 257 0 1 1 0 513c-132 0-257-103-257-258a255 255 0 0 1 257-255z m-352 446c18 0 37-1 55 0 20 0 32 11 33 31 1 21-11 35-31 36-38 1-76 1-114 0-21-1-33-13-33-35s13-32 34-32c18 0 37 0 56 0z m77 287c5 24 8 45 14 66a65 65 0 0 0 64 49q197 0 393 0a63 63 0 0 0 63-46c7-22 11-44 16-69z m275-631a153 153 0 0 0-152 153c1 85 70 152 157 151a152 152 0 0 0 152-153c0-85-69-152-157-151z" horiz-adv-x="1189" />

<glyph glyph-name="about" unicode="&#xe822;" d="M190 647h618c6-7 13-13 17-21 4-6 5-13 8-19q23-61 46-122v-29a15 15 0 0 1-1-4c-3-36-20-64-49-85-3-2-5-9-5-13 0-100-1-199 0-298a77 77 0 0 0-78-78c-164 1-329 0-493 0-46 0-78 32-78 78 0 93 0 185 1 278 0 19-1 36-20 45-1 1-1 1-1 1-29 26-44 79-28 122 16 41 30 81 46 121 4 9 11 16 17 24z m34-304c-1-4-1-8-1-11q0-138 0-277c0-25 11-36 37-36q61 0 123 0c3 0 7 0 11 1v14q0 99 0 199c0 20 8 28 28 28q78 0 156 0c19 0 27-8 27-27v-214c5-1 8-1 11-1 41 0 83 0 124 0 26 0 37 11 37 38q0 137 0 275v12c-39-7-75-2-109 19-2 1-8 0-10-1-51-28-102-28-152 0a15 15 0 0 1-12 0c-51-28-102-28-153 0a12 12 0 0 1-10 1c-33-20-69-26-107-20z m-58 118c4-12 6-23 10-33 24-50 93-62 138-24 16 14 27 15 44 1 35-30 85-30 120 0 16 13 27 13 43 0a94 94 0 0 1 120-1c19 16 27 15 46-1 38-32 97-28 127 11a69 69 0 0 1 16 47z m392-441v199h-115v-199z m-35 483h117c0 33 0 65 0 98 0 2-5 5-7 5q-51 1-102 0c-3 0-7-3-7-5-1-33-1-65-1-98z m-47 103h-116v-103h116z m-298-103h134c0 33 0 65 0 97 0 3-6 6-9 6-22 1-44 1-67 1-19 0-19 0-27-19-10-28-21-56-31-85z m510 104v-104h134c-9 24-18 48-27 71-4 11-5 25-13 30-8 6-22 2-34 3-19 0-39 0-60 0z" horiz-adv-x="1000" />

<glyph glyph-name="claendar" unicode="&#xe823;" d="M707 703c11-7 16-17 15-30-1-8-1-16-1-26 15 0 28 0 42 0 53-1 95-35 105-88a89 89 0 0 0 2-16c0-53 0-107 0-160 0-16-10-25-24-24-13 1-20 10-21 27 0 28 0 56 0 84 0 23 1 46 0 68 0 39-25 64-64 64-13 0-25 0-39 0 0-10 0-20 0-30-1-15-10-25-23-25-12 0-21 10-22 24 0 10 0 19 0 30h-139c0-9 0-19 0-28 0-16-9-26-23-26-13 0-21 10-22 25 0 10 0 19 0 29h-138c0-9 0-18 0-26 0-18-8-28-21-28-15 0-23 10-23 28 0 9 0 17 0 28-20-1-40 0-58-4-27-5-44-30-45-57q0-219 0-438c0-37 27-62 64-62q101 0 202 0c3 0 7 0 11 0 13-2 22-11 22-23 0-13-10-22-24-22-73 0-145 0-218 0-54 1-101 48-101 103q0 223 0 445c0 53 47 100 100 102 15 0 30 0 46 0 4 19-6 42 14 56h16c12-6 16-15 16-28-1-9 0-18 0-27h137c0 9 1 17 0 25a30 30 0 0 0 14 30h17c22-14 10-37 15-55h138c0 9 1 17 0 25a30 30 0 0 0 14 30z m17-705c-79-1-145 65-145 146-1 78 65 144 144 145 80 0 146-66 146-146 0-78-66-145-145-145z m108 144c0 60-49 109-108 109-59 0-108-49-108-106 0-60 48-110 107-110 59 0 109 49 109 107z m-501 295a23 23 0 0 0 23-21c0-11-10-22-22-23s-22 10-22 21a23 23 0 0 0 21 23z m124-44a23 23 0 0 0-22 23 23 23 0 0 0 23 21 23 23 0 0 0 21-22c0-11-11-22-22-22z m246 44a22 22 0 0 0 21-22 23 23 0 0 0-21-22c-11 0-22 10-22 22a23 23 0 0 0 22 22z m-370-289a21 21 0 1 0 22 21 22 22 0 0 0-22-21z m124 0a21 21 0 0 0-1 42 21 21 0 1 0 1-42z m122 245a22 22 0 1 0 22 20 22 22 0 0 0-22-20z m-245-79a22 22 0 0 0 21-23 22 22 0 1 0-21 23z m123-44a22 22 0 0 0-22 22 22 22 0 0 0 22 22 22 22 0 0 0 22-22 23 23 0 0 0-22-22z m287-91c8 0 13 0 19 0a17 17 0 0 0 17-18c0-10-6-17-16-17a284 284 0 0 0-41 0c-10 0-15 8-15 18-1 17-1 33 0 50 0 11 8 18 18 18s17-7 18-19c0-10 0-20 0-32z" horiz-adv-x="1000" />

<glyph glyph-name="evaluation" unicode="&#xe824;" d="M257 688h500v-258c-6-6-12-14-19-18-54-29-108-57-162-86-4-2-8-4-10-5 19-12 40-22 58-35 64-47 91-131 65-204-37-109-162-163-270-117-76 32-122 101-119 177 4 83 48 140 124 172l13 5c-61 32-119 62-177 93-12 6-18 14-18 29 1 71 1 142 0 213 0 14 3 26 15 34z m127-47v-235l116-62 114 61v236z m-35-502c2-12 3-24 6-36 22-81 113-127 195-98 78 27 118 107 91 180-24 66-99 108-169 93-73-14-122-70-123-139z m-57 308l41-22v216h-41z m374 194v-217l41 23v194z m-167-580c-13-6-25-11-38-16-21-7-38 6-36 28 1 12 2 23 4 36-8 9-17 18-25 27-16 18-11 37 13 43 13 4 26 7 39 10 7 11 13 21 20 31 14 20 34 20 47 0 7-10 13-21 20-31 14-4 28-7 42-10 19-6 25-23 13-39-9-11-19-20-28-30 1-13 2-26 3-38 2-21-13-34-34-27-13 5-26 10-40 16z m-30 81a51 51 0 0 0 10-16c3-6 1-18 1-25 11 7 26 9 42 1-5 17 0 29 13 41-19 0-28 8-35 23-7-15-18-23-31-24z" horiz-adv-x="1000" />

<glyph glyph-name="home" unicode="&#xe825;" d="M807 393v-418h-602c-10 7-12 17-12 29q1 190 0 379a45 45 0 0 0 11 31c14 16 27 33 41 49a35 35 0 0 1 9 24c0 28 0 55 0 83 0 26-1 52 0 78 0 24 18 42 41 42q205 0 410 0a39 39 0 0 0 13-3c19-7 28-21 28-41 0-54 0-108 0-162a27 27 0 0 1 7-19c12-14 25-29 37-44 6-9 11-19 17-28z m-554 20h16q74 0 149 0a156 156 0 0 0 17-1 20 20 0 0 0 17-18c1-8-6-15-14-17a53 53 0 0 0-13-2c-45 0-90 0-135 0-19 0-38 0-57 0v-362h74c-1 3-2 5-3 8a195 195 0 0 0-16 128c22 106 121 171 221 166a228 228 0 0 0 95-26c93-48 134-158 99-248-3-9-7-19-11-28h75v362h-15q-88 0-175 0a107 107 0 0 0-18 1c-9 1-17 10-17 18a20 20 0 0 0 19 18 176 176 0 0 0 17 1q77 0 154 0c4 0 8 0 13 0-7 9-14 17-19 25s-12 10-22 10q-204 0-409 0a43 43 0 0 1-8 0 14 14 0 0 1-7-3c-9-10-17-20-27-32z m158-319c1 1 3 1 4 1 0 20 0 39 0 59 1 11 6 18 17 19 10 0 17-6 18-17s1-22 1-33c0-9 0-17 0-25 1 0 4 0 5-1a18 18 0 0 1 3 12c1 17 1 34 1 52a86 86 0 0 0 1 15c2 12 8 18 18 17s17-9 17-21c1-21 1-43 0-64-1-27-11-48-38-59a10 10 0 0 1-5-7c-1-9 0-19 0-29h100v39a52 52 0 0 1-6 3c-17 7-26 20-31 38-7 32 0 60 20 85 21 28 51 28 74 1 17-22 23-47 21-74-1-23-11-40-32-50-3-1-6-4-6-6-1-12 0-24 0-37 17 0 32 0 47 0a13 13 0 0 1 9 6c33 53 37 108 10 164-33 68-113 106-189 93-77-13-140-73-146-152-3-33 3-64 19-93 10-18 11-18 32-18h39v35c-31 11-44 34-44 65 0 19 0 39 0 59 0 13 7 22 18 22 13 0 18-8 18-22 0-18 0-36 0-53 0-8 1-16 5-24z m296 558c-4 0-6 0-8 0q-198 0-396 0c-9 0-11-2-11-10 0-50 0-100 0-150a41 41 0 0 1 1-5h413z m-155-536c0-3 1-5 1-7 1-15 7-22 20-22 12 0 19 7 20 21a69 69 0 0 1-13 47c-6 8-9 8-14 0-8-12-14-25-14-39z m-51 296c10-1 19-11 18-20s-9-17-19-17a18 18 0 0 0-18 18 19 19 0 0 0 19 19z m-1 219c31 0 62 0 93 0 27-1 46-22 49-50 2-22-17-46-41-51a71 71 0 0 0-15-2c-57 0-114-1-170 0-28 0-48 15-54 40-8 30 16 62 47 63 15 0 30 0 45 1s31 0 46 0z m1-35v0h-80c-3 0-6 0-9 0-9-1-15-7-16-15a16 16 0 0 1 14-18 55 55 0 0 1 11 0q80 0 160 0a48 48 0 0 1 15 2c6 2 9 7 9 13 1 12-5 18-17 18-29 0-58 0-87 0z" horiz-adv-x="1000" />

<glyph glyph-name="logout" unicode="&#xe826;" d="M146 660c14 35 42 48 78 47 125 0 250 0 375 0 19 0 37-3 53-12 30-16 46-41 46-75 0-40 0-80 0-119 0-19-11-31-28-31s-28 11-28 30c0 41 0 81 0 121 0 22-15 39-37 39-67 1-134 0-201 0 0 0-1 0-3-2 15-4 28-8 42-12 33-10 49-31 49-66q0-214 0-428v-15a93 93 0 0 1 9-1c32 0 64 0 95 1a75 75 0 0 1 31 8c11 6 15 16 15 29 0 41 0 81 0 122 0 20 10 30 28 30 18 0 28-10 28-29 0-39 0-77 0-116 0-47-30-83-77-89-28-4-56-3-85-3-14 0-28 0-44 0 0-8 0-15 0-22-1-29-15-50-42-60-4-2-8-4-13-5h-30a12 12 0 0 1-3 2c-66 18-132 38-198 55-28 8-50 21-60 48z m54-276c0-85 0-170 0-255 0-13 4-20 17-23 65-18 129-37 194-56 19-5 26 1 26 20q0 255 0 509c0 17-2 20-18 24q-95 28-191 55c-21 6-28 1-28-21q0-127 0-253z m592 3q-80 0-159 0c-5 0-10 0-14 2a16 16 0 0 0-9 20c2 9 8 14 18 13 41 0 83 0 125 0h41c-3 4-5 7-7 9-15 15-30 29-44 44a18 18 0 0 0 0 26c6 7 17 7 25 0q42-42 83-83c8-9 8-18 0-27q-41-41-83-82c-8-8-18-8-25-1-8 8-8 18 0 26 17 17 34 34 51 50z" horiz-adv-x="1000" />

<glyph glyph-name="crown" unicode="&#xe827;" d="M1240 536a48 48 0 0 0-1-13l-80-366a38 38 0 0 0-35-32l-477-3h-478a38 38 0 0 0-35 32l-80 368a48 48 0 0 0-1 13 87 87 0 0 0-53 83 83 83 0 0 0 76 87 83 83 0 0 0 76-87 93 93 0 0 0-28-68l100-115a128 128 0 0 1 96-46 131 131 0 0 1 108 62l163 250a94 94 0 0 0-22 61 83 83 0 0 0 76 88 83 83 0 0 0 76-87 95 95 0 0 0-21-61l0 0 163-251a131 131 0 0 1 108-62 126 126 0 0 1 95 45l101 116a93 93 0 0 0-29 68 83 83 0 0 0 76 87 83 83 0 0 0 76-87 88 88 0 0 0-50-82z m-89-544a39 39 0 0 1-36 41h-936a39 39 0 0 1-36-41v-100a39 39 0 0 1 36-42h936a39 39 0 0 1 36 42z" horiz-adv-x="1290" />

<glyph glyph-name="menu" unicode="&#xe828;" d="M403 610h197c13-10 17-18 13-28s-11-15-28-15h-15c0-16 0-30-1-45 0-8 3-11 11-13a297 297 0 0 0 119-59c72-58 112-133 121-225 0-5 2-7 7-9a63 63 0 0 0 39-43l3-10v-19c-1-2-2-4-2-6a65 65 0 0 0-63-51q-302 0-604 0a64 64 0 0 0-63 54c-6 35 8 62 39 75 6 2 8 5 9 11 6 75 35 139 86 193 43 45 96 75 157 90 2 1 6 3 6 5 1 17 0 34 0 52-8 0-16-1-24 0-15 1-23 11-22 24 2 10 8 15 15 19z m373-389c-8 135-129 264-294 253-154-11-251-142-254-253z m-273-43q-150 0-300 0c-16 0-24-8-24-23 0-17 7-25 23-25 2 0 5 0 7 0h585a82 82 0 0 1 12 0c9 1 16 7 18 16 4 14-2 32-24 32-99-1-198 0-297 0z m23 388h-48v-47h48z" horiz-adv-x="1000" />

<glyph glyph-name="message" unicode="&#xe829;" d="M511 703c11-7 14-17 14-30-1-18 0-36 0-54 16-4 31-7 46-12 84-33 130-94 138-184 2-31 1-62 1-93 0-61 22-112 67-153 28-26 29-61 3-83a57 57 0 0 0-32-11c-44-2-87-1-131-1-7 0-10-1-13-9-13-46-54-75-100-76-45-1-89 30-102 75-3 8-6 10-14 10-42 0-85 0-127 0-24 0-41 11-50 32-9 21-4 43 14 60 31 27 53 60 63 100a318 318 0 0 1 7 59c2 34 0 68 2 102 7 88 85 169 173 181 3 1 7 2 11 3 0 18 0 36 0 54-1 13 3 23 13 30z m-9-576h217c8 0 16 0 24 0a13 13 0 0 1 9 5c1 2-1 6-3 9-1 1-2 2-3 3-47 43-75 97-79 160-3 37-2 74-3 111a162 162 0 0 1-213 149c-64-21-108-82-109-149-1-29 0-58-1-87q-1-109-80-184c-4-3-5-8-8-12 5-2 9-5 14-5 78 0 157 0 235 0z m-57-45c7-27 34-44 63-42 24 1 50 22 52 42z m381 354c0-5 0-9 0-12 0-14-8-24-21-24-12 0-20 9-21 23-3 25-5 51-11 76-11 49-36 90-69 127-3 3-6 6-9 9-8 10-8 21 0 30a21 21 0 0 0 30 0 342 342 0 0 0 102-229z m-646 0q6 132 98 227c10 11 23 11 32 3s9-22-1-33c-42-43-70-94-81-153a473 473 0 0 1-6-55c-1-15-9-25-21-25s-21 10-21 26c-1 3 0 7 0 10z" horiz-adv-x="1000" />

<glyph glyph-name="order" unicode="&#xe82a;" d="M481 692h38c30-8 53-25 66-54 1-3 7-5 10-5 18 0 35 0 53 0 15 0 24-8 26-22 0-3 0-5 1-8 10 0 20-1 30 0 23 1 43-7 61-23 15-13 22-31 28-50v-451a21 21 0 0 1-2-4c-11-42-42-67-85-67-139 0-277 1-415-1-40 0-87 35-87 87 2 141 1 282 1 424 0 49 38 86 87 85 11-1 22 0 32 0 2 24 9 30 32 30 12 0 23 1 34 0 15-1 26 1 30 17 1 4 5 8 8 11 13 17 32 26 52 31z m194-132c-1-3-1-5-1-7-3-33-25-53-58-53q-117 0-234 0c-28 0-49 17-55 43-1 5-1 11-2 17-10 0-19 0-29 0-31 1-46-22-46-47 1-139 0-277 0-416 0-31 16-47 47-47h404c32 0 48 16 48 48v399c0 7 0 14 0 21 0 23-15 40-38 42-12 1-24 0-36 0z m-303 30c0-12 0-22 0-32 0-14 3-16 17-16q53 0 107 0h115c7 0 15 0 16 9 1 12 0 25 0 39-20 0-38-1-56 0s-24 5-28 23c-5 24-21 37-44 37s-38-13-43-38c-4-17-10-22-27-22-19 0-37 0-57 0z m128-258c48 0 97 0 145 0 11 0 20-3 24-14a20 20 0 0 0-13-27 63 63 0 0 0-16-2q-140 0-280 0a71 71 0 0 0-11 0c-14 2-22 11-21 24 1 11 10 19 24 19 27 0 55 0 82 0z m-1 48q-73 0-146 0c-15 0-24 7-25 20 0 13 9 22 25 22q147 0 294 0c14 0 24-9 24-21 0-13-10-21-25-21q-74 0-147 0z m0-181c-49 0-97 0-146 0-10 0-19 3-23 14a21 21 0 0 0 15 28 78 78 0 0 0 15 1q140 0 279 0c4 0 7 0 11 0 12-2 21-10 21-21 0-12-9-21-22-22-14 0-29 0-43 0z" horiz-adv-x="1000" />

<glyph glyph-name="circle" unicode="&#xf111;" d="M857 350q0-117-57-215t-156-156-215-58-216 58-155 156-58 215 58 215 155 156 216 58 215-58 156-156 57-215z" horiz-adv-x="857.1" />

<glyph glyph-name="copyright" unicode="&#xf1f9;" d="M642 251v-61q0-28-21-50t-52-34-66-18-65-6q-115 0-192 78t-76 193q0 113 76 189t189 76q19 0 42-3t52-10 51-19 39-31 16-45v-61q0-9-9-9h-66q-9 0-9 9v39q0 24-37 38t-76 13q-79 0-128-51t-49-132q0-85 51-140t130-55q38 0 77 14t39 37v39q0 4 3 6t5 3h67q3 0 6-3t3-6z m-213 456q-73 0-139-28t-114-76-76-114-29-139 29-139 76-113 114-77 139-28 138 28 114 77 76 113 29 139-29 139-76 114-114 76-138 28z m428-357q0-117-57-215t-156-156-215-58-216 58-155 156-58 215 58 215 155 156 216 58 215-58 156-156 57-215z" horiz-adv-x="857.1" />
</font>
</defs>
</svg>
